<svg xmlns="http://www.w3.org/2000/svg" viewBox="0 0 320 320" role="img" aria-label="//bz.">
  <rect x="52.33" y="6" width="10" height="22" rx="1.5" fill="#2D5BFF" fill-opacity="0.9"/>
  <rect x="52.33" y="296" width="10" height="22" rx="1.5" fill="#2D5BFF" fill-opacity="0.9"/>
  <rect x="6" y="52.33" width="22" height="10" rx="1.5" fill="#2D5BFF" fill-opacity="0.9"/>
  <rect x="296" y="52.33" width="22" height="10" rx="1.5" fill="#2D5BFF" fill-opacity="0.9"/>
  <rect x="81.67" y="6" width="10" height="22" rx="1.5" fill="#2D5BFF" fill-opacity="0.9"/>
  <rect x="81.67" y="296" width="10" height="22" rx="1.5" fill="#2D5BFF" fill-opacity="0.9"/>
  <rect x="6" y="81.67" width="22" height="10" rx="1.5" fill="#2D5BFF" fill-opacity="0.9"/>
  <rect x="296" y="81.67" width="22" height="10" rx="1.5" fill="#2D5BFF" fill-opacity="0.9"/>
  <rect x="111" y="6" width="10" height="22" rx="1.5" fill="#2D5BFF" fill-opacity="0.9"/>
  <rect x="111" y="296" width="10" height="22" rx="1.5" fill="#2D5BFF" fill-opacity="0.9"/>
  <rect x="6" y="111" width="22" height="10" rx="1.5" fill="#2D5BFF" fill-opacity="0.9"/>
  <rect x="296" y="111" width="22" height="10" rx="1.5" fill="#2D5BFF" fill-opacity="0.9"/>
  <rect x="140.33" y="6" width="10" height="22" rx="1.5" fill="#2D5BFF" fill-opacity="0.9"/>
  <rect x="140.33" y="296" width="10" height="22" rx="1.5" fill="#2D5BFF" fill-opacity="0.9"/>
  <rect x="6" y="140.33" width="22" height="10" rx="1.5" fill="#2D5BFF" fill-opacity="0.9"/>
  <rect x="296" y="140.33" width="22" height="10" rx="1.5" fill="#2D5BFF" fill-opacity="0.9"/>
  <rect x="169.67" y="6" width="10" height="22" rx="1.5" fill="#2D5BFF" fill-opacity="0.9"/>
  <rect x="169.67" y="296" width="10" height="22" rx="1.5" fill="#2D5BFF" fill-opacity="0.9"/>
  <rect x="6" y="169.67" width="22" height="10" rx="1.5" fill="#2D5BFF" fill-opacity="0.9"/>
  <rect x="296" y="169.67" width="22" height="10" rx="1.5" fill="#2D5BFF" fill-opacity="0.9"/>
  <rect x="199" y="6" width="10" height="22" rx="1.5" fill="#2D5BFF" fill-opacity="0.9"/>
  <rect x="199" y="296" width="10" height="22" rx="1.5" fill="#2D5BFF" fill-opacity="0.9"/>
  <rect x="6" y="199" width="22" height="10" rx="1.5" fill="#2D5BFF" fill-opacity="0.9"/>
  <rect x="296" y="199" width="22" height="10" rx="1.5" fill="#2D5BFF" fill-opacity="0.9"/>
  <rect x="228.33" y="6" width="10" height="22" rx="1.5" fill="#2D5BFF" fill-opacity="0.9"/>
  <rect x="228.33" y="296" width="10" height="22" rx="1.5" fill="#2D5BFF" fill-opacity="0.9"/>
  <rect x="6" y="228.33" width="22" height="10" rx="1.5" fill="#2D5BFF" fill-opacity="0.9"/>
  <rect x="296" y="228.33" width="22" height="10" rx="1.5" fill="#2D5BFF" fill-opacity="0.9"/>
  <rect x="257.67" y="6" width="10" height="22" rx="1.5" fill="#2D5BFF" fill-opacity="0.9"/>
  <rect x="257.67" y="296" width="10" height="22" rx="1.5" fill="#2D5BFF" fill-opacity="0.9"/>
  <rect x="6" y="257.67" width="22" height="10" rx="1.5" fill="#2D5BFF" fill-opacity="0.9"/>
  <rect x="296" y="257.67" width="22" height="10" rx="1.5" fill="#2D5BFF" fill-opacity="0.9"/>
  <rect x="28" y="28" width="264" height="264" rx="6" fill="#0E1530" stroke="#2D5BFF" stroke-width="1.5"/>
  <circle cx="44" cy="44" r="3.5" fill="#2D5BFF"/>
  <text x="105" y="196" text-anchor="middle" fill="#2D5BFF" font-family="system-ui,-apple-system,sans-serif" font-size="82" font-weight="500">//</text>
  <text x="210" y="196" text-anchor="middle" fill="#FFFFFF" font-family="system-ui,-apple-system,sans-serif" font-size="90" font-weight="700">bz.</text>
</svg>
